<svg width="25" height="25" viewBox="0 0 25 25" fill="none" xmlns="http://www.w3.org/2000/svg">
<g clip-path="url(#clip0_203_102)">
<path d="M25 11.8056C25 10.7799 24.4379 9.89409 23.6111 9.41319V2.77821C23.6111 2.39843 23.3082 1.38889 22.2222 1.38889C21.9132 1.38889 21.6063 1.49218 21.355 1.69357L17.6645 4.64626C15.8108 6.12803 13.4835 6.94444 11.1111 6.94444H2.77778C1.24349 6.94444 0 8.18793 0 9.72222V13.8889C0 15.4232 1.24349 16.6667 2.77778 16.6667H4.24045C4.18012 17.1215 4.14583 17.5842 4.14583 18.0556C4.14583 19.7817 4.54774 21.4128 5.25521 22.8707C5.48047 23.3346 5.97222 23.6111 6.48785 23.6111H9.7118C10.8424 23.6111 11.5213 22.316 10.8359 21.4167C10.1241 20.4826 9.70095 19.3177 9.70095 18.0556C9.70095 17.5733 9.77127 17.1098 9.89236 16.6667H11.1111C13.4835 16.6667 15.8108 17.4831 17.6641 18.9648L21.3546 21.9175C21.6007 22.1145 21.9065 22.2219 22.2218 22.2222C23.3034 22.2222 23.6107 21.2335 23.6107 20.8333V14.1983C24.4379 13.717 25 12.8312 25 11.8056ZM20.8333 17.9436L19.3989 16.796C17.0551 14.921 14.1111 13.8889 11.1111 13.8889V9.72222C14.1111 9.72222 17.0551 8.6901 19.3989 6.8151L20.8333 5.66753V17.9436Z" fill="#2F2323"/>
</g>
<defs>
<clipPath id="clip0_203_102">
<rect width="25" height="25" fill="white"/>
</clipPath>
</defs>
</svg>
