<svg width="26" height="26" viewBox="0 0 26 26" fill="none" xmlns="http://www.w3.org/2000/svg">
<g clip-path="url(#clip0_12_104)">
<path d="M25.1942 12.2879C25.1942 11.2623 24.6321 10.3764 23.8053 9.89552V3.26054C23.8053 2.88076 23.5024 1.87122 22.4164 1.87122C22.1074 1.87122 21.8005 1.97451 21.5492 2.1759L17.8587 5.12859C16.005 6.61037 13.6777 7.42677 11.3053 7.42677H2.97199C1.4377 7.42677 0.194214 8.67026 0.194214 10.2045V14.3712C0.194214 15.9055 1.4377 17.149 2.97199 17.149H4.43466C4.37434 17.6039 4.34005 18.0665 4.34005 18.5379C4.34005 20.264 4.74196 21.8951 5.44942 23.353C5.67468 23.817 6.16644 24.0934 6.68206 24.0934H9.90602C11.0367 24.0934 11.7155 22.7983 11.0302 21.899C10.3183 20.965 9.89517 19.8 9.89517 18.5379C9.89517 18.0557 9.96548 17.5921 10.0866 17.149H11.3053C13.6777 17.149 16.005 17.9654 17.8583 19.4472L21.5488 22.3999C21.795 22.5968 22.1007 22.7043 22.416 22.7045C23.4976 22.7045 23.8049 21.7158 23.8049 21.3157V14.6807C24.6321 14.1993 25.1942 13.3135 25.1942 12.2879ZM21.0275 18.4259L19.5931 17.2783C17.2493 15.4033 14.3053 14.3712 11.3053 14.3712V10.2045C14.3053 10.2045 17.2493 9.17243 19.5931 7.29743L21.0275 6.14986V18.4259Z" fill="#AAAAAA"/>
</g>
<defs>
<clipPath id="clip0_12_104">
<rect width="25" height="25" fill="white" transform="translate(0.194214 0.4823)"/>
</clipPath>
</defs>
</svg>
