<svg width="24" height="24" viewBox="0 0 24 24" fill="none" xmlns="http://www.w3.org/2000/svg">
<path fill-rule="evenodd" clip-rule="evenodd" d="M19.207 6.20697C19.3892 6.01838 19.49 5.76575 19.4877 5.50358C19.4854 5.2414 19.3802 4.99055 19.1948 4.80518C19.0094 4.61975 18.7586 4.51459 18.4964 4.51231C18.2342 4.51003 17.9816 4.61082 17.793 4.79298L12 10.586L6.20697 4.79298C6.01838 4.61082 5.7658 4.51003 5.50358 4.51231C5.2414 4.51459 4.9906 4.61975 4.80518 4.80518C4.61976 4.99055 4.5146 5.2414 4.51232 5.50358C4.51004 5.76575 4.61083 6.01838 4.79299 6.20697L10.586 12L4.79299 17.793C4.69748 17.8852 4.6213 17.9956 4.56889 18.1176C4.51648 18.2396 4.4889 18.3708 4.48774 18.5036C4.48659 18.6364 4.51189 18.768 4.56217 18.8909C4.61245 19.0138 4.6867 19.1255 4.7806 19.2194C4.87449 19.3133 4.98614 19.3875 5.10902 19.4378C5.23195 19.4881 5.36361 19.5134 5.49638 19.5122C5.62919 19.5111 5.76038 19.4835 5.88239 19.4311C6.00441 19.3786 6.11476 19.3025 6.20697 19.207L12 13.414L17.793 19.207C17.9816 19.3892 18.2342 19.4899 18.4964 19.4877C18.7586 19.4854 19.0094 19.3802 19.1948 19.1948C19.3802 19.0094 19.4854 18.7586 19.4877 18.4964C19.49 18.2342 19.3892 17.9816 19.207 17.793L13.414 12L19.207 6.20697Z" fill="#BFBFBF"/>
</svg>
